<svg width="28" height="28" viewBox="0 0 28 28" fill="none" xmlns="http://www.w3.org/2000/svg">
<path fill-rule="evenodd" clip-rule="evenodd" d="M12.4982 0.059437C12.952 0.0587268 13.4584 0.059437 14.0272 0.059437C18.5781 0.059437 19.1175 0.0757714 20.9147 0.157443C22.5765 0.233434 23.4785 0.511119 24.0793 0.744417C24.8747 1.05335 25.4418 1.42265 26.038 2.01921C26.6346 2.61577 27.0039 3.18393 27.3135 3.97934C27.5468 4.57945 27.8248 5.4814 27.9005 7.14325C27.9821 8.94003 27.9999 9.47978 27.9999 14.0286C27.9999 18.5773 27.9821 19.1171 27.9005 20.9139C27.8245 22.5757 27.5468 23.4777 27.3135 24.0778C27.0046 24.8732 26.6346 25.4396 26.038 26.0358C25.4414 26.6323 24.8751 27.0016 24.0793 27.3106C23.4792 27.5449 22.5765 27.8219 20.9147 27.8979C19.1179 27.9796 18.5781 27.9973 14.0272 27.9973C9.47596 27.9973 8.93657 27.9796 7.13979 27.8979C5.47794 27.8212 4.57599 27.5435 3.97481 27.3102C3.1794 27.0013 2.61125 26.632 2.01468 26.0354C1.41812 25.4389 1.04882 24.8721 0.739179 24.0764C0.505881 23.4762 0.227841 22.5743 0.152206 20.9125C0.0705336 19.1157 0.0541992 18.5759 0.0541992 14.0243C0.0541992 9.47268 0.0705336 8.93577 0.152206 7.13899C0.228196 5.47714 0.505881 4.57519 0.739179 3.97437C1.04811 3.17896 1.41812 2.6108 2.01468 2.01424C2.61125 1.41768 3.1794 1.04838 3.97481 0.738736C4.57564 0.504372 5.47794 0.227397 7.13979 0.151052C8.71215 0.0800325 9.3215 0.0587268 12.4982 0.0551758V0.059437ZM23.1255 2.88956C21.9963 2.88956 21.0801 3.80464 21.0801 4.9342C21.0801 6.0634 21.9963 6.97955 23.1255 6.97955C24.2547 6.97955 25.1708 6.0634 25.1708 4.9342C25.1708 3.80499 24.2547 2.88956 23.1255 2.88956ZM14.0292 5.27931C9.19524 5.27931 5.27605 9.1985 5.27605 14.0324C5.27605 18.8663 9.19524 22.7838 14.0292 22.7838C18.8631 22.7838 22.7809 18.8663 22.7809 14.0324C22.7809 9.1985 18.8631 5.27931 14.0292 5.27931ZM14.0789 8.51074C17.1541 8.51074 19.6475 11.0037 19.6475 14.0793C19.6475 17.1545 17.1541 19.6479 14.0789 19.6479C11.0033 19.6479 8.51036 17.1545 8.51036 14.0793C8.51036 11.0037 11.0033 8.51074 14.0789 8.51074Z" fill="white"/>
</svg>
