<svg width="42" height="42" viewBox="0 0 42 42" fill="none" xmlns="http://www.w3.org/2000/svg">
<path fill-rule="evenodd" clip-rule="evenodd" d="M19.2902 16.852C15.5538 16.4348 10.7355 18.1012 7.40982 21.4328C3.25723 25.5928 3.39341 30.7625 7.30568 34.6818C11.218 38.601 16.3785 38.7374 20.5311 34.5774C23.8145 31.2882 25.4776 26.5416 25.1187 22.8193C24.9558 21.1299 24.3763 19.6515 23.3428 18.6161C22.3386 17.6101 20.917 17.0336 19.2902 16.852ZM27.6273 17.3546L31.4051 13.5701L32.8248 14.5123C34.0516 15.3265 35.701 15.1696 36.7564 14.1123C37.9768 12.8897 37.9768 10.9076 36.7564 9.68501C36.27 9.19774 35.6553 8.89416 34.9904 8.7995L33.4411 8.57892L33.221 7.02688C33.1265 6.36081 32.8234 5.745 32.337 5.25773C31.1166 4.03517 29.138 4.03517 27.9176 5.25773C26.8622 6.31505 26.7055 7.96741 27.5183 9.1964L28.4589 10.6186L24.6987 14.3854C25.269 14.7522 25.8013 15.1783 26.2879 15.6658C26.8019 16.1807 27.2475 16.7467 27.6273 17.3546ZM20.3974 12.7914L23.2576 9.92606C22.3331 7.32859 22.936 4.34512 24.9713 2.30623C27.8189 -0.546412 32.4357 -0.546412 35.2833 2.30623C36.0594 3.08376 36.6385 4.01 36.9965 5.01723C38.002 5.37588 38.9266 5.95598 39.7027 6.73351C42.5503 9.58615 42.5503 14.2112 39.7027 17.0638C37.6674 19.1027 34.6893 19.7068 32.0964 18.7806L29.1784 21.7039C29.9557 26.9081 27.7725 33.2173 23.4684 37.529C17.6542 43.3536 9.86337 43.1477 4.35909 37.6336C-1.1452 32.1195 -1.35078 24.3149 4.46351 18.4902C8.80542 14.1406 15.1765 11.9531 20.3974 12.7914Z" fill="white"/>
</svg>
