<svg width="42" height="42" viewBox="0 0 42 42" fill="none" xmlns="http://www.w3.org/2000/svg">
<path fill-rule="evenodd" clip-rule="evenodd" d="M37.6668 0.166748H4.33342C2.03223 0.166748 0.166748 2.03223 0.166748 4.33342V12.6667V29.3334V37.6668C0.166748 39.9679 2.03223 41.8334 4.33342 41.8334H37.6668C39.9679 41.8334 41.8334 39.9679 41.8334 37.6668V29.3334V12.6667V4.33342C41.8334 2.03223 39.9679 0.166748 37.6668 0.166748ZM4.33342 37.6667V29.3334H37.6667V37.6667H4.33342ZM4.33342 12.6667H37.6667V4.33342H4.33342V12.6667ZM4.33342 25.1667V16.8334H37.6667V25.1667H4.33342ZM12.6667 18.9167H27.2501V23.0834H12.6667V18.9167ZM33.5001 8.50008C33.5001 9.65067 32.5673 10.5834 31.4167 10.5834C30.2662 10.5834 29.3334 9.65067 29.3334 8.50008C29.3334 7.34949 30.2662 6.41675 31.4167 6.41675C32.5673 6.41675 33.5001 7.34949 33.5001 8.50008ZM31.4167 23.0834C32.5673 23.0834 33.5001 22.1507 33.5001 21.0001C33.5001 19.8495 32.5673 18.9167 31.4167 18.9167C30.2662 18.9167 29.3334 19.8495 29.3334 21.0001C29.3334 22.1507 30.2662 23.0834 31.4167 23.0834ZM33.5001 33.5001C33.5001 34.6507 32.5673 35.5834 31.4167 35.5834C30.2662 35.5834 29.3334 34.6507 29.3334 33.5001C29.3334 32.3495 30.2662 31.4167 31.4167 31.4167C32.5673 31.4167 33.5001 32.3495 33.5001 33.5001Z" fill="white"/>
</svg>
