<svg width="44" height="40" viewBox="0 0 44 40" fill="none" xmlns="http://www.w3.org/2000/svg">
<path fill-rule="evenodd" clip-rule="evenodd" d="M30.7678 0.750035C27.8787 0.749997 25.9793 1.08432 23.807 2.09698C23.1657 2.39593 22.5548 2.74365 21.9767 3.13939C21.4279 2.77033 20.8493 2.44271 20.2429 2.15709C18.0314 1.11534 16.0379 0.75 13.25 0.75C5.60587 0.75 0 6.83742 0 14.7198C0 20.6268 3.40048 26.2375 9.65731 31.5969C12.8976 34.3725 17.0252 37.1128 20.001 38.5804L22 39.5662L23.999 38.5804C26.9748 37.1128 31.1024 34.3725 34.3427 31.5969C40.5995 26.2375 44 20.6268 44 14.7198C44 6.91586 38.3459 0.779923 30.7678 0.750035ZM38.5 14.7198C38.5 18.7456 35.9182 23.0054 30.7647 27.4198C28.0288 29.7633 24.5357 32.1115 22 33.428C19.4643 32.1115 15.9712 29.7633 13.2353 27.4198C8.08176 23.0054 5.5 18.7456 5.5 14.7198C5.5 9.77839 8.74928 6.25 13.25 6.25C15.2852 6.25 16.4965 6.472 17.8992 7.13271C18.7088 7.5141 19.4193 8.01409 20.0326 8.63717L22.0093 10.6454L23.9687 8.62041C24.5957 7.97246 25.315 7.46224 26.1308 7.08194C27.4883 6.4491 28.6195 6.25 30.757 6.25001C35.1955 6.26754 38.5 9.85362 38.5 14.7198Z" fill="white"/>
</svg>
