<svg width="50" height="51" viewBox="0 0 50 51" fill="none" xmlns="http://www.w3.org/2000/svg">
<path fill-rule="evenodd" clip-rule="evenodd" d="M41.756 4.87354H8.80362C6.52873 4.87354 4.68457 6.7177 4.68457 8.99258V41.945C4.68457 44.2199 6.52873 46.064 8.80362 46.064H41.756C44.0309 46.064 45.8751 44.2199 45.8751 41.945V33.7067H45.8751V17.2306H45.8751V8.99258C45.8751 6.7177 44.0309 4.87354 41.756 4.87354ZM41.7559 8.99254V17.2306H8.80349V8.99254H41.7559ZM41.7559 33.7067H8.80349V41.9449H41.7559V33.7067ZM8.80349 29.5878V21.3497H41.7559V29.5878H8.80349ZM17.0417 23.4091H31.4584V27.5282H17.0417V23.4091ZM37.6368 13.1115C37.6368 14.249 36.7147 15.171 35.5773 15.171C34.4399 15.171 33.5178 14.249 33.5178 13.1115C33.5178 11.9741 34.4399 11.052 35.5773 11.052C36.7147 11.052 37.6368 11.9741 37.6368 13.1115ZM35.5773 27.5282C36.7147 27.5282 37.6368 26.6061 37.6368 25.4687C37.6368 24.3312 36.7147 23.4091 35.5773 23.4091C34.4399 23.4091 33.5178 24.3312 33.5178 25.4687C33.5178 26.6061 34.4399 27.5282 35.5773 27.5282ZM37.6368 37.8258C37.6368 38.9632 36.7147 39.8853 35.5773 39.8853C34.4399 39.8853 33.5178 38.9632 33.5178 37.8258C33.5178 36.6884 34.4399 35.7663 35.5773 35.7663C36.7147 35.7663 37.6368 36.6884 37.6368 37.8258Z" fill="white"/>
</svg>
